HIERARCHY
ROOT Hips
{
	OFFSET	0	0	0
	CHANNELS 6  Xposition Yposition Zposition Xrotation Yrotation Zrotation
	JOINT Spine
	{
		OFFSET	0	7.00908	1.40711
		CHANNELS 3  Xrotation Yrotation Zrotation
		JOINT Spine1
		{
			OFFSET	0	11.9997	-2.14281
			CHANNELS 3  Xrotation Yrotation Zrotation
			JOINT Spine2
			{
				OFFSET	0	9.09621	0.974976
				CHANNELS 3  Xrotation Yrotation Zrotation
				JOINT Spine3
				{
					OFFSET	0	10.8855	3.23564
					CHANNELS 3  Xrotation Yrotation Zrotation
					JOINT Spine4
					{
						OFFSET	0	16.1139	-1.64996
						CHANNELS 3  Xrotation Yrotation Zrotation
						JOINT Neck
						{
							OFFSET	0	7.69267	-5.38915
							CHANNELS 3  Xrotation Yrotation Zrotation
							JOINT Head
							{
								OFFSET	0	9.23549	-2.76422
								CHANNELS 3  Xrotation Yrotation Zrotation
								End Site
								{
									OFFSET	0	19.2638	-0.93212
								}
							}
						}
					}
					JOINT LeftShoulder
					{
						OFFSET	-4.62846	19.5852	-9.23549
						CHANNELS 3  Xrotation Yrotation Zrotation
						JOINT LeftArm
						{
							OFFSET	-10.1082	-2.76422	3.54636
							CHANNELS 3  Xrotation Yrotation Zrotation
							JOINT LeftForeArm
							{
								OFFSET	-30.9178	-1.41114	2.20688
								CHANNELS 3  Xrotation Yrotation Zrotation
								JOINT LeftHand
								{
									OFFSET	-25.989	-1.79599	1.85507
									CHANNELS 3  Xrotation Yrotation Zrotation
									End Site
									{
										OFFSET	-9.4847	-0.655447	0.676963
									}
								}
							}
						}
					}
					JOINT RightShoulder
					{
						OFFSET	4.62846	19.5852	-9.23549
						CHANNELS 3  Xrotation Yrotation Zrotation
						JOINT RightArm
						{
							OFFSET	10.1082	-2.76422	3.54636
							CHANNELS 3  Xrotation Yrotation Zrotation
							JOINT RightForeArm
							{
								OFFSET	30.9178	-1.41114	2.20688
								CHANNELS 3  Xrotation Yrotation Zrotation
								JOINT RightHand
								{
									OFFSET	25.989	-1.79599	1.85507
									CHANNELS 3  Xrotation Yrotation Zrotation
									End Site
									{
										OFFSET	9.4847	-0.655447	0.676963
									}
								}
							}
						}
					}
				}
			}
		}
	}
	JOINT LeftUpLeg
	{
		OFFSET	-9.51492	-3.50454	-0.703555
		CHANNELS 3  Xrotation Yrotation Zrotation
		JOINT LeftLeg
		{
			OFFSET	-2.15663	-42.2584	-0.660591
			CHANNELS 3  Xrotation Yrotation Zrotation
			JOINT LeftFoot
			{
				OFFSET	-2.11138	-38.9194	3.34707
				CHANNELS 3  Xrotation Yrotation Zrotation
				JOINT LeftToeBase
				{
					OFFSET	0	-4.8091	-12.773
					CHANNELS 3  Xrotation Yrotation Zrotation
					End Site
					{
						OFFSET	0	-1.92364	-7.69456
					}
				}
			}
		}
	}
	JOINT RightUpLeg
	{
		OFFSET	9.51492	-3.50454	-0.703555
		CHANNELS 3  Xrotation Yrotation Zrotation
		JOINT RightLeg
		{
			OFFSET	2.15663	-42.2584	-0.660591
			CHANNELS 3  Xrotation Yrotation Zrotation
			JOINT RightFoot
			{
				OFFSET	2.11138	-38.9194	3.34707
				CHANNELS 3  Xrotation Yrotation Zrotation
				JOINT RightToeBase
				{
					OFFSET	0	-4.8091	-12.773
					CHANNELS 3  Xrotation Yrotation Zrotation
					End Site
					{
						OFFSET	0	-1.92364	-7.69456
					}
				}
			}
		}
	}
}
MOTION
Frames: 17
Frame Time: 0.020408
 0 -9.53305 2.91081 -0 0 -0 -0 0 -0 -0 0 -0 -0 0 -0 -0 0 -0 -0 0 -0 -0 0 -0 -0 0 -0 -0 0 -0 -0 0 -0 -0 0 -0 -0 0 -0 -0 0 -0 -0 0 -0 -0 0 -0 -0 0 -0 -0 0 -0 -0 0 -0 -0 0 -0 -0 0 -0 -0 0 -0 -0 0 -0 -0 0 -0 -0 0 -0
 99.4181 90.6215 259.853 22.464 -54.9871 18.6912 180 -179.89 179.852 173.879 -179.78 179.753 174.283 -179.339 179.753 177.137 -179.89 179.852 175.119 179.996 179.951 171.907 177.018 -179.466 177.556 174.97 -179.366 177.453 -173.225 174.814 173.816 -171.026 -102.117 45.6159 -32.4475 26.5179 -0 20.8723 0.281678 0.943752 20.212 -2.03409 7.07483 -18.6573 -58.0987 103.92 43.9625 -106.951 -0 -5.90602 -22.0958 162.441 146.473 175.85 174.757 169.018 178.73 11.335 -1.25891 10.0405 169.587 180 -180 0.429627 -9.4332 -2.31961 159.132 165.906 -176.985 6.55928 1.46348 0.238909 1.36703 0 0
 99.9462 90.5761 260.057 21.8337 -54.7686 18.4153 180 -179.899 179.777 173.896 -179.798 179.629 174.308 -179.393 179.629 177.177 -179.899 179.777 175.057 179.994 179.926 171.717 176.999 -179.828 177.496 174.636 -179.429 177.194 -174.025 174.315 174.18 -171.514 -101.589 46.0396 -32.6628 27.0363 -0 20.8933 0.118074 1.01275 20.6182 -2.18475 7.11984 -18.2683 -58.0285 104.028 44.0294 -107.001 -0 -5.86387 -22.1739 163.387 146.562 174.924 174.4 168.813 178.671 11.2964 -1.22985 10.2571 169.601 180 -180 0.41617 -9.50895 -3.01948 158.876 166.104 -176.813 6.92569 1.47248 0.689876 1.3455 0 0
 100.303 90.5481 260.282 21.6919 -54.9756 18.5032 180 -179.897 179.741 173.895 -179.795 179.569 174.312 -179.384 179.569 177.19 -179.897 179.741 175.027 179.993 179.914 171.633 177.002 179.833 177.469 174.366 -179.494 176.915 -174.815 173.782 174.307 -172.03 -101.072 46.6019 -33.0561 27.797 -0 20.8438 -0.0551744 1.03015 21.2605 -2.22513 7.52196 -17.7795 -57.8444 103.95 44.1832 -106.931 -0 -5.9089 -22.1954 164.298 146.243 174.222 173.682 168.589 178.622 11.3679 -1.11255 10.4604 169.58 180 -180 0.3445 -9.44676 -3.36865 158.904 166.146 -176.906 7.07244 1.62492 0.801069 1.32674 0 0
 100.525 90.5223 260.425 21.6549 -55.2647 18.6249 179.999 -179.891 179.685 173.902 -179.782 179.475 174.3 -179.347 179.475 177.142 -179.891 179.685 175.151 179.991 179.895 171.985 176.963 179.635 177.573 174.146 -179.532 176.828 -175.323 173.629 174.788 -172.259 -100.312 47.2282 -33.4697 28.6296 -0 20.793 -0.160375 0.942689 21.8519 -2.03829 8.10819 -17.3238 -57.4273 104.007 44.2787 -106.935 -0 -5.94325 -22.1915 165.325 146.267 173.656 172.615 168.152 178.469 11.6612 -1.03911 10.6348 169.579 180 -180 0.262944 -9.48063 -3.70996 159.023 166.08 -176.878 7.12247 1.73577 0.941516 1.29947 0 0
 100.762 90.5094 260.41 21.7725 -55.4823 18.578 179.999 -179.881 179.698 173.907 -179.761 179.497 174.284 -179.283 179.497 177.085 -179.881 179.698 175.295 179.992 179.9 172.392 177.024 179.26 177.695 173.96 -179.624 176.636 -175.827 173.264 174.849 -172.404 -99.6353 47.8007 -33.7802 29.3924 -0 20.8119 -0.175947 0.864326 22.8495 -1.87168 8.62004 -16.6849 -57.0253 103.873 44.46 -106.781 -0 -6.06906 -22.1742 165.799 146.302 173.602 171.736 167.413 178.531 11.8695 -0.822586 10.6461 169.46 180 -180 179.983 -170.418 176.403 159.324 166.021 -176.824 7.28326 1.53988 -0.0607688 1.29452 0 0
 101.175 90.4675 260.602 21.6638 -55.6056 19.0243 179.999 -179.892 179.608 173.918 -179.784 179.347 174.28 -179.351 179.347 177.048 -179.892 179.608 175.402 179.99 179.87 172.686 177.037 179.193 177.783 173.934 -179.645 176.429 -176.186 172.866 174.85 -172.481 -99.0328 48.3987 -34.0527 30.0115 -0 20.964 -0.135195 0.852072 24.0995 -1.8479 9.39344 -15.9358 -56.4816 103.6 44.7009 -106.366 -0 -6.22877 -22.087 167.128 146.454 172.617 170.601 167.013 178.024 12.1855 -0.771753 11.0202 169.568 180 -180 179.763 -170.717 175.357 159.249 166.004 -176.525 7.37729 1.6862 1.05894 1.24692 0 0
 101.351 90.4473 260.634 21.5763 -55.8401 18.9063 179.999 -179.89 179.616 173.912 -179.779 179.359 174.259 -179.338 179.359 176.998 -179.89 179.616 175.507 179.99 179.872 172.992 177.029 179.282 177.876 173.998 -179.632 176.235 -176.59 172.499 175.037 -172.648 -98.4461 48.9105 -34.1783 30.54 -0 21.1437 -0.0137129 0.707128 25.0724 -1.53477 10.3859 -15.4196 -55.687 103.182 44.9551 -105.702 -0 -6.37729 -21.9333 168.407 146.34 172.029 168.904 166.294 178.411 12.6284 -0.655274 10.8832 169.47 180 -180 179.675 -170.763 175.319 159.55 165.942 -176.479 7.41237 1.61846 0.22902 1.23848 0 0
 101.471 90.4354 260.991 21.2431 -55.9698 19.1015 179.999 -179.894 179.529 173.934 -179.787 179.215 174.266 -179.361 179.215 176.972 -179.894 179.529 175.61 179.988 179.843 173.264 177.075 179.314 177.959 174.114 -179.639 176 -176.828 172.041 175.295 -172.902 -98.0193 49.1709 -34.009 30.7355 -0 21.4295 0.108218 0.578298 25.8714 -1.2557 10.4969 -14.8669 -55.3037 103.192 45.0505 -105.48 -0 -6.50534 -21.8976 169.951 146.548 171.15 167.857 165.778 178.033 12.8128 -0.652533 11.078 169.526 180 -180 179.723 -171.022 174.458 159.759 165.791 -176.365 7.1497 1.6295 0.960714 1.19754 0 0
 101.582 90.4316 261.284 21.1033 -56.3124 19.0324 179.999 -179.902 179.514 173.944 -179.805 179.19 174.271 -179.414 179.19 176.96 -179.902 179.514 175.657 179.988 179.839 173.39 177.08 179.395 177.997 174.195 -179.626 175.865 -176.886 171.774 175.462 -173.195 -97.914 49.2907 -33.7058 30.6495 -0 21.6911 0.209287 0.411418 26.8705 -0.893597 10.608 -14.3806 -54.8878 103.073 45.1845 -105.242 -0 -6.70536 -21.8767 171.001 146.397 170.692 166.866 165.265 178.192 12.8757 -0.567655 10.9627 169.522 180 -180 179.888 -171.028 174.151 159.842 165.687 -176.217 7.0034 1.69532 1.06589 1.17037 0 0
 101.74 90.4446 261.646 21.183 -56.7125 19.4003 179.999 -179.909 179.452 173.93 -179.818 179.086 174.249 -179.453 179.086 176.93 -179.909 179.452 175.7 179.986 179.818 173.525 177.132 179.331 178.038 174.239 -179.65 175.77 -176.873 171.583 175.648 -173.42 -97.7093 49.3622 -33.322 30.457 -0 21.9378 0.358827 0.26141 27.6604 -0.56779 10.4009 -13.8249 -54.7788 103.128 45.2488 -105.247 -0 -6.91719 -21.879 171.935 146.276 170.241 166.255 164.86 177.922 12.907 -0.443567 11.0184 169.528 180 -180 179.821 -171.324 173.434 160.128 165.562 -176.083 6.70189 1.7639 1.28749 1.14103 0 0
 101.989 90.4309 261.844 21.2983 -56.7448 19.522 179.999 -179.895 179.487 173.908 -179.79 179.145 174.222 -179.369 179.145 176.903 -179.895 179.487 175.722 179.987 179.83 173.606 177.229 179.163 178.063 174.27 -179.701 175.516 -176.758 171.064 175.79 -173.549 -97.4029 49.309 -32.8643 30.0725 -0 22.1617 0.465569 0.104779 28.2204 -0.22756 10.2715 -13.4243 -54.5376 103.024 45.3217 -105.225 -0 -7.07959 -21.8642 172.582 146.152 170.062 165.639 164.585 177.671 12.9071 -0.430605 11.1441 169.579 180 -180 179.63 -171.555 173.051 160.194 165.54 -175.904 6.69982 1.80129 1.76285 1.10484 0 0
 101.945 90.4989 261.842 20.7357 -56.8084 19.0291 179.999 -179.912 179.414 173.922 -179.824 179.024 174.239 -179.472 179.024 176.919 -179.912 179.414 175.714 179.985 179.805 173.569 177.225 179.228 178.052 174.318 -179.687 175.551 -176.511 171.117 175.932 -173.669 -97.2534 49.1352 -32.334 29.575 -0 22.2988 0.488036 179.815 151.628 -179.599 10.5378 -13.1243 -53.9437 102.952 45.376 -105.114 -0 -7.18294 -21.832 173.584 145.807 169.728 164.727 164.147 178.391 13.1541 -0.358199 10.4647 169.458 180 -180 179.54 -171.859 173.051 161.234 165.472 -175.943 6.27805 1.4889 0.467106 1.10011 0 0
 102.046 90.5251 262.092 20.3298 -56.7944 18.8403 179.999 -179.908 179.386 173.909 -179.817 178.977 174.217 -179.451 178.977 176.886 -179.908 179.386 175.765 179.985 179.796 173.728 177.333 179.029 178.1 174.345 -179.747 175.44 -176.364 170.881 176.091 -173.816 -97.1773 49.0541 -31.9532 29.2036 -0 22.3903 0.490363 179.627 151.505 -179.189 11.0329 -12.7837 -53.4457 102.747 45.4228 -104.925 -0 -7.24153 -21.7691 174.586 145.688 169.448 164.234 163.982 178.065 13.1874 -0.340837 10.3427 169.464 180 -180 179.594 -171.779 172.637 161.557 165.458 -175.931 5.9855 1.50057 0.507969 1.07899 0 0
 101.994 90.5456 262.205 19.9298 -56.9943 18.573 179.999 -179.919 179.366 173.92 -179.837 178.943 174.217 -179.512 178.943 176.858 -179.919 179.366 175.849 179.985 179.789 173.956 177.416 178.887 178.17 174.373 -179.793 175.344 -176.189 170.675 176.334 -173.923 -96.7914 48.998 -31.6234 28.8822 -0 22.4192 0.507458 179.531 151.515 -178.982 11.5121 -12.4682 -53.2346 102.806 45.3467 -105.086 -0 -7.24701 -21.741 175.273 145.477 169.427 163.987 163.815 178.116 13.268 -0.320554 10.0248 169.466 180 -180 179.963 -171.997 172.458 161.529 165.546 -175.861 5.81364 1.52993 0.512147 1.06211 0 0
 101.994 90.5933 262.335 19.9637 -56.9059 18.6648 179.999 -179.912 179.34 173.898 -179.825 178.901 174.192 -179.474 178.901 176.835 -179.912 179.34 175.862 179.984 179.781 174.009 177.63 178.575 178.187 174.487 -179.891 175.257 -175.892 170.479 176.409 -174.033 -96.7025 48.7772 -31.2182 28.3871 -0 22.3532 0.363337 179.363 152.15 -178.615 11.777 -12.6784 -53.0314 102.903 45.1945 -105.352 -0 -7.20531 -21.6664 175.6 145.406 169.402 163.811 163.793 178.186 13.2858 -0.32992 9.73231 169.472 180 -180 179.728 -171.825 172.3 162.045 165.527 -175.901 5.52563 1.55705 0.534821 1.04014 0 0
 102.036 90.6149 262.553 20.0015 -57.0788 18.8606 179.999 -179.927 179.316 173.905 -179.854 178.86 174.191 -179.562 178.86 176.813 -179.927 179.316 175.926 179.984 179.773 174.177 177.909 178.084 178.241 174.556 179.963 175.149 -175.678 170.244 176.498 -174.241 -96.6079 48.5764 -30.9376 28.0039 -0 22.0659 0.0960099 179.27 152.639 -178.415 12.0393 -12.7862 -52.9554 102.935 45.0476 -105.485 -0 -7.15911 -21.5823 175.989 145.335 169.568 163.766 163.672 177.82 13.2552 -0.243999 9.69525 169.529 180 -180 179.837 -172.716 171.92 162.267 165.624 -175.784 5.18416 1.48852 1.07606 1.00829 0 0
